<?xml version="1.0" encoding="utf-8"?>
<!-- Generator: Adobe Illustrator 26.1.0, SVG Export Plug-In . SVG Version: 6.00 Build 0)  -->
<svg version="1.1" id="Layer_1" xmlns="http://www.w3.org/2000/svg" xmlns:xlink="http://www.w3.org/1999/xlink" x="0px" y="0px"
	 viewBox="0 0 512 512" style="enable-background:new 0 0 512 512;" xml:space="preserve">
<g>
	<path d="M12.2,196c80.5-40.2,157.9-79,235.7-117.2c5.5-2.7,14.6-3.3,19.9-0.6c77.2,38,154,76.7,230.8,115.3c1,0.5,1.4,2.1,2.9,4.5
		c-4.2,2.5-8.2,5.3-12.5,7.4c-72.4,36.2-144.6,72.7-217.4,108.1c-7.1,3.5-18.7,3.8-25.6,0.4c-74.7-36.5-148.9-74-223.2-111.2
		C20.3,201.4,18.1,199.7,12.2,196z"/>
	<path d="M505.5,311.1c-43.2,21.6-82.4,41.2-121.6,60.8c-36.8,18.4-73.5,37.3-110.7,55c-7,3.3-17.7,5.7-23.9,2.7
		C171,391.4,93.1,352.1,10.8,310.9c23.3-11.7,42.7-22.5,63.1-30.8c5.7-2.3,15.2,1.4,21.8,4.6c48.7,23.9,97.2,48,145.4,72.9
		c12.2,6.3,22,6.6,34.3,0.2c47.5-24.6,95.8-47.7,143.1-72.5c13.8-7.2,24.8-7.5,38,0.5C471.1,294.5,486.7,301.5,505.5,311.1z"/>
</g>
</svg>
